<svg id="Layer_1" data-name="Layer 1" xmlns="http://www.w3.org/2000/svg" viewBox="0 0 200 200"><defs><style>.cls-1{fill:#ff3268;}</style></defs><title>add-favorite</title><path class="cls-1" d="M75.71,154.56v-48.4A4.14,4.14,0,0,1,79.85,102h32.3V69.73a4.14,4.14,0,0,1,4.14-4.14h48.4a4.14,4.14,0,0,1,4.14,4.14V102h3.08C219.31,18.73,125-9.36,96,44.8c-37-69.1-180.44-4.32,0,138.2q8.58-6.78,16.2-13.32v-11H79.85A4.14,4.14,0,0,1,75.71,154.56Z"/><path class="cls-1" d="M189.24,114.35H156.51V81.61a3.88,3.88,0,0,0-3.88-3.88H128.35a3.88,3.88,0,0,0-3.88,3.88v32.73H91.73a3.88,3.88,0,0,0-3.88,3.88V142.5a3.88,3.88,0,0,0,3.88,3.88h32.73v32.73a3.88,3.88,0,0,0,3.88,3.88h24.28a3.88,3.88,0,0,0,3.88-3.88V146.39h32.73a3.88,3.88,0,0,0,3.88-3.88V118.23A3.88,3.88,0,0,0,189.24,114.35Z"/></svg>