<svg id="Layer_1" data-name="Layer 1" xmlns="http://www.w3.org/2000/svg" xmlns:xlink="http://www.w3.org/1999/xlink" viewBox="0 0 2110 1726"><defs><style>.cls-1{fill:#2800a0;}.cls-2{fill:#fff;}.cls-3{fill:#00d66c;}</style></defs><title>favorite-select</title><path class="cls-1" d="M188-357,91.68-267v14.21h20.53V-177H263.79v-75.79h20.53V-267Zm28.42,145.26H159.58v-41.05h56.84Z" transform="translate(365 618)"/><path class="cls-2" d="M-304-63" transform="translate(365 618)"/><path class="cls-1" d="M94-600.49c-52,0-94.14,26.88-94.14,60,0,16.14,10,30.79,26.26,41.57L8-469.51l60.3-13.19A144.72,144.72,0,0,0,94-480.42c52,0,94.14-26.88,94.14-60S146-600.49,94-600.49Z" transform="translate(365 618)"/><circle class="cls-3" cx="-194.65" cy="-196.65" r="56.35" transform="translate(447.04 422.77) rotate(-45)"/><rect class="cls-3" x="-136.31" y="-163.21" width="44.56" height="94.36" rx="9.83" ry="9.83" transform="translate(413.65 503.38) rotate(-45)"/><path class="cls-1" d="M526.71-480.44v-48.4a4.14,4.14,0,0,1,4.14-4.14h32.3v-32.3a4.14,4.14,0,0,1,4.14-4.14h48.4a4.14,4.14,0,0,1,4.14,4.14V-533h3.08c47.41-83.29-46.94-111.38-76-57.22-37-69.1-180.44-4.32,0,138.2q8.58-6.78,16.2-13.32v-11h-32.3A4.14,4.14,0,0,1,526.71-480.44Z" transform="translate(365 618)"/><path class="cls-1" d="M640.24-520.65H607.51v-32.73a3.88,3.88,0,0,0-3.88-3.88H579.35a3.88,3.88,0,0,0-3.88,3.88v32.73H542.73a3.88,3.88,0,0,0-3.88,3.88v24.28a3.88,3.88,0,0,0,3.88,3.88h32.73v32.73a3.88,3.88,0,0,0,3.88,3.88h24.28a3.88,3.88,0,0,0,3.88-3.88v-32.73h32.73a3.88,3.88,0,0,0,3.88-3.88v-24.28A3.88,3.88,0,0,0,640.24-520.65Z" transform="translate(365 618)"/><path class="cls-3" d="M654.63-276.38a14.5,14.5,0,0,0,11.74-14.23,14.5,14.5,0,0,0-14.5-14.5H594.13c.3,0,1.08-6.63,1.14-7.11q.76-5.86,1-11.78c.4-12.4-1-25.62-6.6-36.87a25.77,25.77,0,0,0-1.84-3.13c-3-4.29-7.61-7.25-13-7A14.48,14.48,0,0,0,563-363.86a19.81,19.81,0,0,0-2.14,8.64c-.53,10.39,0,20.33-3.47,30.38s-10.29,19.32-19.82,24.3c-12.39,6.47-26.08,6-39.62,6a14.29,14.29,0,0,0-14.19,16l8.39,69A14.29,14.29,0,0,0,506.31-197H635.59c3.29,0,6.32-.32,9.2-2a14.55,14.55,0,0,0,6.55-8.59,14.63,14.63,0,0,0-1.67-11.53,14.68,14.68,0,0,0-2.72-3.2,14.51,14.51,0,0,0,11.51-14.19,14.48,14.48,0,0,0-6.55-12.12,14.5,14.5,0,0,0,11.83-14.25A14.5,14.5,0,0,0,654.63-276.38Z" transform="translate(365 618)"/><path class="cls-1" d="M181.66,101.79c1.36-2.4,2.59-4.75,3.73-7.07.28-.57.55-1.14.82-1.71,1.06-2.23,2.05-4.44,2.92-6.59l.16-.38c.9-2.25,1.66-4.44,2.35-6.6.16-.51.33-1,.48-1.53.64-2.11,1.21-4.19,1.66-6.21.06-.26.1-.51.15-.77.39-1.85.7-3.65.94-5.41.06-.42.12-.84.17-1.25q.33-2.84.42-5.55c0-.35,0-.69,0-1q0-2.41-.13-4.71c0-.29,0-.59-.05-.87-.15-1.69-.38-3.32-.67-4.91-.07-.36-.14-.71-.22-1.06-.31-1.5-.68-3-1.12-4.38,0-.1-.06-.21-.09-.31a43.72,43.72,0,0,0-1.64-4.28q-.21-.48-.43-.95a42.31,42.31,0,0,0-2.06-3.9l-.23-.35c-.71-1.15-1.48-2.25-2.28-3.31-.19-.25-.38-.5-.57-.75a41.61,41.61,0,0,0-2.77-3.15l-.56-.54q-1.33-1.31-2.77-2.5l-.59-.5q-1.62-1.29-3.37-2.42l-.79-.49c-1.1-.69-2.23-1.33-3.39-1.92l-.37-.2c-1.26-.63-2.55-1.18-3.87-1.7l-.91-.35c-1.33-.49-2.69-.94-4.07-1.32l-.24-.06c-1.33-.36-2.69-.65-4.06-.89l-.89-.16c-1.42-.23-2.86-.41-4.3-.53l-.62,0q-2-.14-4-.12h-.71q-2.22,0-4.46.28l-.74.09c-1.45.17-2.9.39-4.34.67l-.25,0c-1.52.31-3,.7-4.53,1.14l-.72.22a54.54,54.54,0,0,0-8.88,3.63l-.56.29c-1.46.77-2.89,1.61-4.29,2.53l-.1.07c-1.4.92-2.76,1.92-4.09,3l-.29.23q-2,1.63-3.91,3.49l-.25.25a57.23,57.23,0,0,0-7,8.51l-.25.38c-1.05,1.58-2.06,3.22-3,5-.93-1.74-1.95-3.37-3-5l-.25-.38a57.2,57.2,0,0,0-7-8.51l-.25-.25q-1.89-1.86-3.91-3.49l-.29-.23c-1.33-1.06-2.69-2.06-4.09-3l-.1-.07c-1.4-.92-2.83-1.75-4.29-2.53l-.56-.29a54.57,54.57,0,0,0-8.88-3.63l-.72-.22c-1.5-.44-3-.83-4.53-1.14l-.25,0c-1.44-.29-2.89-.51-4.34-.67l-.74-.09q-2.23-.23-4.46-.28h-.71q-2,0-4,.12l-.62,0c-1.45.12-2.88.3-4.3.53l-.89.16c-1.37.25-2.72.54-4.06.89l-.24.06c-1.38.38-2.73.83-4.07,1.32l-.91.35c-1.31.51-2.61,1.07-3.87,1.7l-.37.2C27.09,17,26,17.6,24.86,18.28l-.79.49q-1.74,1.13-3.37,2.42l-.59.5q-1.44,1.19-2.77,2.5l-.56.54A41.72,41.72,0,0,0,14,27.89c-.2.24-.38.5-.57.75-.81,1.06-1.57,2.16-2.28,3.31l-.23.35a42.18,42.18,0,0,0-2.06,3.9c-.15.31-.29.63-.43.95A43.59,43.59,0,0,0,6.8,41.42c0,.1-.06.21-.09.31-.44,1.41-.8,2.88-1.12,4.38-.07.35-.15.7-.22,1.06-.29,1.59-.53,3.22-.67,4.91,0,.29,0,.58-.05.87q-.16,2.29-.13,4.71c0,.35,0,.69,0,1q.08,2.7.42,5.55c0,.41.11.83.17,1.25.24,1.77.55,3.57.94,5.41.05.26.09.51.15.77.45,2,1,4.1,1.66,6.21.15.51.32,1,.48,1.53C9,81.59,9.8,83.78,10.7,86l.16.38c.87,2.15,1.86,4.35,2.92,6.59.27.57.54,1.14.82,1.71,1.14,2.32,2.37,4.67,3.73,7.07l.2.37.07.07c12,21,32.31,45.25,63.95,72.4l.08.08q8.18,7,17.37,14.28h0q9.2-7.27,17.37-14.28l.07-.08c31.64-27.15,52-51.4,63.95-72.4l.07-.07Z" transform="translate(365 618)"/><rect class="cls-1" y="193.65" width="148" height="27.41"/><polygon class="cls-1" points="74 184.51 148 116.91 98.67 116.91 98.67 36.94 49.33 36.94 49.33 116.91 0 116.91 74 184.51"/><path class="cls-1" d="M547-116a96,96,0,0,0-96,96,96,96,0,0,0,96,96,96,96,0,0,0,96-96A96,96,0,0,0,547-116Zm0,22c22.28,0,40.33,19.7,40.33,44S569.28-6,547-6s-40.33-19.7-40.33-44S524.72-94,547-94Zm0,158c-28.39,0-53.09-13.46-65.86-33.33L514.34-2,547,38.45,579.82-2.18,613,30.49C600.26,50.45,575.49,64,547,64Z" transform="translate(365 618)"/><image width="834" height="834" transform="translate(1572 195) scale(0.24)" xlink:href="comment.png"/><image width="1920" height="1080" transform="translate(958 1078) scale(0.6)" xlink:href="../../../../../../Dropbox/Schermafdrukken/Schermafdruk 2017-10-10 13.10.45.png"/></svg>