<svg id="Layer_1" data-name="Layer 1" xmlns="http://www.w3.org/2000/svg" viewBox="0 0 200 200"><defs><style>.cls-1{fill:#00d66c;}</style></defs><title>favorite</title><path class="cls-1" d="M181.66,101.79c1.36-2.4,2.59-4.75,3.73-7.07.28-.57.55-1.14.82-1.71,1.06-2.23,2.05-4.44,2.92-6.59l.16-.38c.9-2.25,1.66-4.44,2.35-6.6.16-.51.33-1,.48-1.53.64-2.11,1.21-4.19,1.66-6.21.06-.26.1-.51.15-.77.39-1.85.7-3.65.94-5.41.06-.42.12-.84.17-1.25q.33-2.84.42-5.55c0-.35,0-.69,0-1q0-2.41-.13-4.71c0-.29,0-.59-.05-.87-.15-1.69-.38-3.32-.67-4.91-.07-.36-.14-.71-.22-1.06-.31-1.5-.68-3-1.12-4.38,0-.1-.06-.21-.09-.31a43.72,43.72,0,0,0-1.64-4.28q-.21-.48-.43-.95a42.31,42.31,0,0,0-2.06-3.9l-.23-.35c-.71-1.15-1.48-2.25-2.28-3.31-.19-.25-.38-.5-.57-.75a41.61,41.61,0,0,0-2.77-3.15l-.56-.54q-1.33-1.31-2.77-2.5l-.59-.5q-1.62-1.29-3.37-2.42l-.79-.49c-1.1-.69-2.23-1.33-3.39-1.92l-.37-.2c-1.26-.63-2.55-1.18-3.87-1.7l-.91-.35c-1.33-.49-2.69-.94-4.07-1.32l-.24-.06c-1.33-.36-2.69-.65-4.06-.89l-.89-.16c-1.42-.23-2.86-.41-4.3-.53l-.62,0q-2-.14-4-.12h-.71q-2.22,0-4.46.28l-.74.09c-1.45.17-2.9.39-4.34.67l-.25,0c-1.52.31-3,.7-4.53,1.14l-.72.22a54.54,54.54,0,0,0-8.88,3.63l-.56.29c-1.46.77-2.89,1.61-4.29,2.53l-.1.07c-1.4.92-2.76,1.92-4.09,3l-.29.23q-2,1.63-3.91,3.49l-.25.25a57.23,57.23,0,0,0-7,8.51l-.25.38c-1.05,1.58-2.06,3.22-3,5-.93-1.74-1.95-3.37-3-5l-.25-.38a57.2,57.2,0,0,0-7-8.51l-.25-.25q-1.89-1.86-3.91-3.49l-.29-.23c-1.33-1.06-2.69-2.06-4.09-3l-.1-.07c-1.4-.92-2.83-1.75-4.29-2.53l-.56-.29a54.57,54.57,0,0,0-8.88-3.63l-.72-.22c-1.5-.44-3-.83-4.53-1.14l-.25,0c-1.44-.29-2.89-.51-4.34-.67l-.74-.09q-2.23-.23-4.46-.28h-.71q-2,0-4,.12l-.62,0c-1.45.12-2.88.3-4.3.53l-.89.16c-1.37.25-2.72.54-4.06.89l-.24.06c-1.38.38-2.73.83-4.07,1.32l-.91.35c-1.31.51-2.61,1.07-3.87,1.7l-.37.2C27.09,17,26,17.6,24.86,18.28l-.79.49q-1.74,1.13-3.37,2.42l-.59.5q-1.44,1.19-2.77,2.5l-.56.54A41.72,41.72,0,0,0,14,27.89c-.2.24-.38.5-.57.75-.81,1.06-1.57,2.16-2.28,3.31l-.23.35a42.18,42.18,0,0,0-2.06,3.9c-.15.31-.29.63-.43.95A43.59,43.59,0,0,0,6.8,41.42c0,.1-.06.21-.09.31-.44,1.41-.8,2.88-1.12,4.38-.07.35-.15.7-.22,1.06-.29,1.59-.53,3.22-.67,4.91,0,.29,0,.58-.05.87q-.16,2.29-.13,4.71c0,.35,0,.69,0,1q.08,2.7.42,5.55c0,.41.11.83.17,1.25.24,1.77.55,3.57.94,5.41.05.26.09.51.15.77.45,2,1,4.1,1.66,6.21.15.51.32,1,.48,1.53C9,81.59,9.8,83.78,10.7,86l.16.38c.87,2.15,1.86,4.35,2.92,6.59.27.57.54,1.14.82,1.71,1.14,2.32,2.37,4.67,3.73,7.07l.2.37.07.07c12,21,32.31,45.25,63.95,72.4l.08.08q8.18,7,17.37,14.28h0q9.2-7.27,17.37-14.28l.07-.08c31.64-27.15,52-51.4,63.95-72.4l.07-.07Z"/></svg>